<svg xmlns="http://www.w3.org/2000/svg" viewBox="0 0 512 512"><defs><linearGradient id="g" x1="0" y1="0" x2="1" y2="1"><stop offset="0" stop-color="#4345c8"/><stop offset="1" stop-color="#8b7cf6"/></linearGradient></defs><rect width="512" height="512" rx="120" fill="url(#g)"/><circle cx="390" cy="105" r="92" fill="#fff" opacity=".12"/><path d="M147 172h218a35 35 0 0 1 35 35v149a35 35 0 0 1-35 35H147a35 35 0 0 1-35-35V207a35 35 0 0 1 35-35Z" fill="#fff"/><path d="M192 172v-28c0-34 27-61 61-61h6c34 0 61 27 61 61v28" fill="none" stroke="#fff" stroke-width="30" stroke-linecap="round"/><path d="M177 251h158M177 309h108" stroke="#5b5ce2" stroke-width="27" stroke-linecap="round"/></svg>